{"title":"Alex and Emma (2003) Kate Hudson + Luke Wilson (DVDrip)","uid":4330318,"size":725685451,"categoryP":"video","categoryS":"movies","magnet":"?xt=urn:btih:6431c02d3f7aa170c3a8c49ad32f12a602bdda81&amp;dn=Alex+and+Emma+%282003%29+Kate+Hudson+%2B+Luke+Wilson+%28DVDrip%29&amp;tr=udp%3A%2F%2Ftracker.openbittorrent.com%3A80&amp;tr=udp%3A%2F%2Fopen.demonii.com%3A1337&amp;tr=udp%3A%2F%2Ftracker.coppersurfer.tk%3A6969&amp;tr=udp%3A%2F%2Fexodus.desync.com%3A6969","seeders":4,"leechers":1,"uploader":"Kuthumi","files":-1,"time":1218010022,"description":"aka Alex &amp; Emma (2003)\nDirector: Rob Reiner &lt;a href=&quot;\nhttp://www.imdb.com/title/tt0318283/&quot; rel=&quot;nofollow&quot; target=&quot;_NEW&quot;&gt;\nhttp://www.imdb.com/title/tt0318283/&lt;/a&gt;\n\nCute comedy with Luke Wilson as an author making constant rewrites of a story acted out by Kate Hudson. Instructive for writers, entertaining for others.\n\nThis is not my rip, I found it on the net using PirateBay's tracker, so I thought it should be represented here.\n\nWidescreen 544x288, good stereo sound.\nBurn tested, runs well in both my standalone DivX players.\n\nOptional subtitles with a character set in some non-Western language that I failed to identify. Good suggestions are welcome.\n\n\nFormat/Info                      : Audio Video Interleave\nFile size                        : 692 MiB\nDuration                         : 1h 35mn\nOveral bit rate                  : 1015 Kbps\nCopyright                        : [S&amp;F] FindBG Downloaders &amp; PowerNET your I-NET Provider\n\nVideo\nFormat                           : MPEG-4 Visual\nFormat settings, BVOP            : No\nFormat settings, QPel            : No\nFormat settings, GMC             : No warppoints\nFormat settings, Matrix          : Default\nCodec ID                         : XVID\nCodec ID/Hint                    : XviD\nDuration                         : 1h 35mn\nBit rate                         : 868 Kbps\nWidth                            : 544 pixels\nHeight                           : 288 pixels\nDisplay aspect ratio             : 1.889\nFrame rate                       : 23.976 fps\nResolution                       : 8 bits\nColorimetry                      : 4:2:0\nScan type                        : Progressive\nBits/(Pixel*Frame)               : 0.231\nStream size                      : 592 MiB\n\nAudio\nFormat                           : MPEG Audio\nFormat version                   : Version 1\nFormat profile                   : Layer 3\nCodec ID                         : 55\nCodec ID/Hint                    : MP3\nDuration                         : 1h 35mn\nBit rate mode                    : Variable\nBit rate                         : 134 Kbps\nChannel(s)                       : 2 channels\nSampling rate                    : 48.0 KHz\nResolution                       : 16 bits\nStream size                      : 91.7 MiB\nLanguage                         : undefined\n","torrent":{"xt":"urn:btih:6431c02d3f7aa170c3a8c49ad32f12a602bdda81","amp;dn":"Alex+and+Emma+%282003%29+Kate+Hudson+%2B+Luke+Wilson+%28DVDrip%29","amp;tr":["udp%3A%2F%2Ftracker.openbittorrent.com%3A80","udp%3A%2F%2Fopen.demonii.com%3A1337","udp%3A%2F%2Ftracker.coppersurfer.tk%3A6969","udp%3A%2F%2Fexodus.desync.com%3A6969"],"infoHash":"6431c02d3f7aa170c3a8c49ad32f12a602bdda81","infoHashBuffer":{"type":"Buffer","data":[100,49,192,45,63,122,161,112,195,168,196,154,211,47,18,166,2,189,218,129]},"announce":[],"urlList":[]}}